<?xml version="1.0" encoding="UTF-8"?>
<svg id="Layer_2" data-name="Layer 2" xmlns="http://www.w3.org/2000/svg" viewBox="0 0 1027.73 975.87">
  <defs>
    <style>
      .cls-1 {
        fill: #a23939;
      }

      .cls-2 {
        fill: none;
        stroke: #a23939;
        stroke-miterlimit: 10;
        stroke-width: 2px;
      }
    </style>
  </defs>
  <path class="cls-1" d="M881.77,418.98h-100.79l-.13-.84c-.09-.54-9.08-54.9-46.22-108.75-21.79-31.6-48.88-56.85-80.5-75.05-39.53-22.76-86.32-34.51-139.08-34.93s-99.08,10.81-137.71,33.37c-30.9,18.04-56.97,43.35-77.51,75.2-35,54.3-41.83,109.57-41.9,110.12l-.1.88h-109.44l29.58-207.59-15.03-52.73h127.69c.36-7.05,3.85-50.29,36.1-78.74,23.62-20.84,56.92-29.15,98.98-24.7v-31.25h157.91v27.5c9.68-1.54,76.22-10.59,117.35,23.09,21.42,17.54,32.64,43.74,33.34,77.88l128.69,2.58-19.5,47.21,38.27,216.77v-.02ZM782.68,416.98h96.71l-37.95-215,18.61-45.05-127.69-2.56v-.97c-.52-33.99-11.49-60-32.63-77.32-43.49-35.61-116.18-22.61-116.91-22.47l-1.18.22v-27.88h-153.91v31.48l-1.11-.12c-41.99-4.65-75.14,3.46-98.53,24.08-34.36,30.31-35.48,77.79-35.48,78.27l-.02.99h-126.98l14.42,50.59-.03.21-29.29,205.52h105.37c1.03-7.35,9.24-59.11,42.04-110.02,20.7-32.14,47.01-57.67,78.18-75.89,38.95-22.76,85.64-34.09,138.77-33.67,53.12.42,100.26,12.27,140.1,35.22,31.88,18.36,59.19,43.83,81.15,75.69,34.84,50.54,45.06,101.53,46.36,108.66v.02Z"/>
  <path class="cls-1" d="M776.05,435.71h-37.7l-.12-.86c-.07-.48-7.12-48.86-38.07-96.32-18.15-27.84-40.86-49.92-67.48-65.65-33.29-19.65-72.84-29.37-117.59-28.88-44.74.49-83.74,10.82-115.92,30.69-25.74,15.9-47.2,37.91-63.81,65.42-28.31,46.91-32.69,94.2-32.73,94.67l-.08.91h-40.35l-6.18-17.4,1.88-.67,5.7,16.07h37.12c.76-6.84,6.53-50.86,32.88-94.55,16.76-27.81,38.45-50.06,64.47-66.13,32.5-20.08,71.86-30.52,116.99-31.02,45.12-.49,85.06,9.32,118.67,29.18,26.9,15.89,49.82,38.2,68.14,66.31,28.89,44.33,37.1,89.46,38.2,96.21h34.6l6.23-16.09,1.87.72-6.73,17.37v.02Z"/>
  <path class="cls-1" d="M690.38,544.25l-.19-2.31c-.03-.39-3.43-39.44-26.65-77.96-13.62-22.58-31.3-40.57-52.54-53.47-26.57-16.13-58.84-24.31-95.93-24.31s-69.68,8.09-96.87,24.03c-21.74,12.75-40.11,30.54-54.58,52.87-24.69,38.08-29.56,76.68-29.61,77.06l-.43,3.59-13.59-30.48v-34.38l-19.28-43.81,1.83-.81,19.45,44.19v34.37l10.56,23.69c1.78-10.31,8.69-42.57,29.35-74.46,14.65-22.61,33.24-40.62,55.25-53.55,27.51-16.15,60.45-24.33,97.92-24.33s70.11,8.28,97.01,24.62c21.53,13.08,39.43,31.31,53.22,54.19,20.24,33.6,25.56,67.6,26.65,76.52l21.75-24.09v-38.38l.13-.23,24.53-42.62,1.73,1-24.39,42.39v38.62l-25.31,28.04h-.01Z"/>
  <polygon class="cls-1" points="715.42 516.52 713.96 515.15 738.79 488.71 781.31 488.71 795.48 467.4 944.43 467.4 930.8 418.98 880.58 418.98 880.58 416.98 932.31 416.98 947.07 469.4 796.55 469.4 782.38 490.71 739.65 490.71 715.42 516.52"/>
  <polygon class="cls-1" points="320.23 513.74 301.17 492.08 264.87 492.08 256.35 475.58 99.13 475.58 105.81 416.98 149.56 416.98 149.56 418.98 107.6 418.98 101.37 473.58 257.57 473.58 266.09 490.08 302.08 490.08 321.74 512.42 320.23 513.74"/>
  <path class="cls-1" d="M844.1,212.32h-115.78l-.3-.35c-33.5-39.21-81.7-54.69-82.18-54.84l-.78-.24,4.14-41.35c-72.11-25.8-142.44-24.41-188.82-18.67-46.3,5.72-78.54,16.78-83.79,18.66l6.21,44.48-.84.24c-49.74,14.21-82.87,51.37-83.2,51.74l-.3.34h-119.45v-2h118.56c3.46-3.79,35.71-37.96,83.01-51.76l-6.19-44.35.75-.28c.34-.13,34.27-12.77,84.94-19.04,46.76-5.79,117.78-7.18,190.54,19.03l.73.26-4.13,41.3c6.37,2.17,50.51,18.18,82.03,54.84h114.86v2h0Z"/>
  <path class="cls-1" d="M720.56,465.91c-.14-.35-14.79-35.29-47.48-69.51-19.18-20.08-40.73-35.99-64.05-47.29-29.14-14.12-61.16-21.06-95.15-20.57-34,.47-65.57,7.97-93.82,22.3-22.61,11.47-43.16,27.31-61.1,47.08-30.56,33.7-43.06,67.61-43.19,67.95l-1.88-.68c.12-.34,12.73-34.56,43.53-68.55,18.1-19.97,38.85-35.97,61.68-47.56,28.54-14.48,60.41-22.07,94.74-22.54,34.32-.46,66.66,6.52,96.09,20.79,23.54,11.41,45.29,27.47,64.63,47.74,32.93,34.49,47.68,69.73,47.83,70.08l-1.85.76h.02Z"/>
  <polygon class="cls-1" points="557.02 24.96 555.02 24.96 555.02 2 452.01 2 452.01 24.96 450.01 24.96 450.01 0 557.02 0 557.02 24.96"/>
  <g>
    <polygon class="cls-2" points="536.7 434.71 515.07 385.22 492.92 434.71 438.31 424.51 472.75 468.4 433.39 515.83 492.92 505.73 515.07 568.62 534.24 507.04 590.82 515.83 555.15 468.4 590.82 425.82 536.7 434.71"/>
    <polyline class="cls-2" points="492.92 434.71 513.87 463.6 536.7 434.71"/>
    <polyline class="cls-2" points="492.92 505.73 513.87 463.6 534.24 507.04"/>
    <polyline class="cls-2" points="472.75 468.4 513.87 463.6 555.15 468.4"/>
  </g>
  <polygon class="cls-1" points="282 211.32 280 211.32 280 196.23 293.79 196.23 293.48 188.06 301.84 188.06 290.67 160.03 292.53 159.28 304.79 190.06 295.56 190.06 295.87 198.23 282 198.23 282 211.32"/>
  <polygon class="cls-1" points="750.05 211.32 748.05 211.32 748.05 190.85 732.34 190.85 732.34 182.68 720.71 182.68 732.41 153.03 734.27 153.77 723.65 180.68 734.34 180.68 734.34 188.85 750.05 188.85 750.05 211.32"/>
  <rect class="cls-1" x="293.47" y="163.35" width="73.33" height="2"/>
  <polygon class="cls-1" points="297.05 189.47 291.17 176.61 168.7 176.61 168.7 174.61 292.45 174.61 298.87 188.64 297.05 189.47"/>
  <polygon class="cls-1" points="729.23 182.05 727.38 181.3 733.83 165.16 856.39 167.44 856.36 169.44 735.18 167.18 729.23 182.05"/>
  <polygon class="cls-1" points="280.18 197.79 277.34 193.58 173.66 193.58 173.66 191.58 278.4 191.58 281.83 196.67 280.18 197.79"/>
  <polygon class="cls-1" points="749.88 190.53 748.22 189.41 751.66 184.31 848.66 186.16 848.62 188.16 752.71 186.33 749.88 190.53"/>
  <rect class="cls-1" x="693.44" y="126.36" width="2" height="70.87" transform="translate(520.54 853.31) rotate(-89)"/>
  <polygon class="cls-1" points="780.85 975.77 736.61 563.11 690.79 542.78 691.6 540.95 738.48 561.75 738.54 562.32 782.84 975.56 780.85 975.77"/>
  <polygon class="cls-1" points="1025.78 975.87 928.73 515.51 974.66 469.4 945.75 469.4 945.75 467.4 979.47 467.4 930.91 516.15 1027.73 975.46 1025.78 975.87"/>
  <polygon class="cls-1" points="740.43 583.47 739.01 582.05 762.64 558.37 808.31 558.37 819.33 544.42 935.87 544.42 935.87 546.42 820.3 546.42 809.28 560.37 763.47 560.37 740.43 583.47"/>
  <polygon class="cls-1" points="738.31 563.07 736.78 561.79 764.99 528.13 806.73 528.13 816.9 514.83 929.82 514.83 929.82 516.83 817.89 516.83 807.72 530.13 765.93 530.13 738.31 563.07"/>
  <polygon class="cls-1" points="708.8 550.02 707.32 548.68 740.26 512.35 781.38 512.35 798.1 492.61 951.94 492.61 951.94 494.61 799.03 494.61 782.3 514.35 741.15 514.35 708.8 550.02"/>
  <polygon class="cls-1" points="725.51 557.42 724.01 556.1 755.36 520.48 795.19 520.48 806.74 506.05 938.56 506.05 938.56 508.05 807.7 508.05 796.15 522.48 756.26 522.48 725.51 557.42"/>
  <polygon class="cls-1" points="742.4 601.95 741.01 600.52 765.04 577.17 811.62 575.47 822.66 562.6 939.89 562.6 939.89 564.6 823.58 564.6 812.56 577.44 765.88 579.15 742.4 601.95"/>
  <g>
    <polyline class="cls-2" points="283.79 600.68 285.16 581.64 286.66 560.63 299.44 554.96 316.15 547.55 333.02 540.06"/>
    <line class="cls-2" x1="283.79" y1="600.68" x2="256.96" y2="975.67"/>
    <polyline class="cls-2" points="100.25 474.59 56.1 475.59 72.26 491.81 85.65 505.25 94.39 514.03 88.4 543.62 84.73 561.79 .98 975.67"/>
    <polyline class="cls-2" points="88.34 543.62 88.4 543.62 204.39 543.62 215.41 557.57 261.15 557.57 285.16 581.64"/>
    <polyline class="cls-2" points="94.39 514.03 206.82 514.03 216.98 527.33 258.75 527.33 286.66 560.63"/>
    <polyline class="cls-2" points="316.15 547.55 283.5 511.55 242.37 511.55 225.64 491.81 72.26 491.81"/>
    <polyline class="cls-2" points="85.65 505.25 216.98 505.25 228.53 519.68 268.4 519.68 299.44 554.96"/>
    <polyline class="cls-2" points="283.8 600.69 283.79 600.68 258.75 576.36 212.12 574.66 201.09 561.79 84.73 561.79 84.32 561.79"/>
  </g>
</svg>